<svg width="19" height="19" viewBox="0 0 19 19" fill="none" xmlns="http://www.w3.org/2000/svg">
<path d="M8.61104 0.725463C8.98337 0.00278293 10.0166 0.00278307 10.389 0.725463L11.5233 2.9272C11.747 3.36145 12.2517 3.57051 12.717 3.42165L15.0759 2.66688C15.8502 2.41914 16.5809 3.14977 16.3331 3.92405L15.5784 6.28301C15.4295 6.74827 15.6386 7.25298 16.0728 7.47671L18.2745 8.61104C18.9972 8.98337 18.9972 10.0166 18.2745 10.389L16.0728 11.5233C15.6386 11.747 15.4295 12.2517 15.5784 12.717L16.3331 15.0759C16.5809 15.8502 15.8502 16.5809 15.0759 16.3331L12.717 15.5784C12.2517 15.4295 11.747 15.6386 11.5233 16.0728L10.389 18.2745C10.0166 18.9972 8.98337 18.9972 8.61104 18.2745L7.47671 16.0728C7.25298 15.6386 6.74827 15.4295 6.28301 15.5784L3.92405 16.3331C3.14977 16.5809 2.41914 15.8502 2.66688 15.0759L3.42165 12.717C3.57051 12.2517 3.36145 11.747 2.9272 11.5233L0.725463 10.389C0.00278293 10.0166 0.00278307 8.98337 0.725463 8.61104L2.9272 7.47671C3.36145 7.25298 3.57051 6.74827 3.42165 6.28301L2.66688 3.92405C2.41914 3.14977 3.14977 2.41914 3.92405 2.66688L6.28301 3.42165C6.74827 3.57051 7.25298 3.36145 7.47671 2.9272L8.61104 0.725463Z" fill="#F6B980"/>
</svg>
